<svg width="642" height="632" viewBox="0 0 642 632" fill="none" xmlns="http://www.w3.org/2000/svg">
<path d="M47.8348 226.468L330.097 21.3924L612.359 226.468L504.545 558.287H155.649L47.8348 226.468Z" fill="white" stroke="black" stroke-width="18.4332"/>
<path d="M122.596 253.545L329.521 103.205L536.446 253.545L457.408 496.801H201.634L122.596 253.545Z" stroke="#05AAFF" stroke-width="57.6038"/>
<path d="M371.03 318.945C371.03 318.945 508.182 452.21 522.006 565.568C410.86 665.102 201.839 621.97 201.839 621.97C201.839 621.97 336.763 549.532 371.03 318.945Z" fill="black"/>
<path fill-rule="evenodd" clip-rule="evenodd" d="M269.127 630.093C259.249 629.476 250.15 628.669 242.046 627.804C285.899 599.537 326.254 546.579 354.757 490.282C370.871 458.456 382.938 426.057 389.602 397.296C394.335 376.864 396.212 358.82 395.202 344.307C400.48 350.119 406.395 356.799 412.71 364.208C411.859 375.896 409.828 388.392 406.84 401.289C399.805 431.656 387.191 465.396 370.544 498.275C345.111 548.508 309.652 597.909 269.127 630.093Z" fill="#05AAFF"/>
<path d="M341.223 361.102C341.223 361.102 256.863 532.722 153.325 580.9C24.3164 505.951 0.745633 293.832 0.745633 293.832C0.745633 293.832 111.332 399.767 341.223 361.102Z" fill="black"/>
<path fill-rule="evenodd" clip-rule="evenodd" d="M13.8142 360.337C11.3482 350.751 9.3036 341.848 7.62252 333.873C48.0569 366.846 110.894 388.861 173.243 398.572C208.492 404.062 243.033 405.527 272.446 402.977C293.34 401.165 311.081 397.374 324.571 391.929C320.675 398.744 316.149 406.434 311.055 414.73C299.676 417.532 287.164 419.462 273.975 420.606C242.92 423.298 206.934 421.728 170.52 416.056C114.886 407.391 56.9455 388.933 13.8142 360.337Z" fill="#05AAFF"/>
<path d="M292.71 345.339C292.71 345.339 103.421 318.142 25.6067 234.559C57.0212 88.7042 251.475 0.738565 251.475 0.738565C251.475 0.738565 184.897 138.648 292.71 345.339Z" fill="black"/>
<path fill-rule="evenodd" clip-rule="evenodd" d="M192.263 33.7189C200.617 28.4115 208.453 23.7157 215.518 19.6526C196.654 68.2971 195.135 134.861 205.166 197.16C210.837 232.38 220.117 265.684 231.632 292.869C239.812 312.18 248.9 327.882 258.247 339.029C250.561 337.429 241.849 335.502 232.385 333.22C226.204 323.264 220.502 311.961 215.338 299.77C203.181 271.068 193.554 236.357 187.696 199.973C178.745 144.384 178.395 83.5757 192.263 33.7189Z" fill="#05AAFF"/>
<path d="M292.71 294.33C292.71 294.33 260.083 105.9 315.529 6.06619C463.953 -9.12834 607.703 148.625 607.703 148.625C607.703 148.625 455.969 127.923 292.71 294.33Z" fill="black"/>
<path fill-rule="evenodd" clip-rule="evenodd" d="M558.039 102.503C565.669 108.809 572.556 114.81 578.603 120.273C526.511 117.365 462.734 136.489 406.584 165.28C374.841 181.557 346.034 200.675 323.738 220.027C307.9 233.774 295.775 247.269 288.062 259.603C287.209 251.799 286.35 242.918 285.595 233.212C293.154 224.257 302.141 215.341 312.139 206.663C335.68 186.231 365.717 166.35 398.51 149.535C448.613 123.844 506.337 104.721 558.039 102.503Z" fill="#05AAFF"/>
<path d="M341.223 278.567C341.223 278.567 510.348 189.309 622.429 211.191C682.746 347.655 577.134 533.118 577.134 533.118C577.134 533.118 549.935 382.413 341.223 278.567Z" fill="black"/>
<path fill-rule="evenodd" clip-rule="evenodd" d="M605.652 471.632C602.013 480.836 598.434 489.241 595.107 496.681C581.775 446.239 543.879 391.494 499.146 346.989C473.856 321.829 446.773 300.341 421.478 285.116C403.509 274.3 386.928 266.94 372.814 263.416C379.972 260.192 388.153 256.631 397.151 252.914C408.004 257.335 419.26 263.128 430.603 269.955C457.31 286.03 485.5 308.453 511.626 334.445C551.541 374.156 587.566 423.146 605.652 471.632Z" fill="#05AAFF"/>
<path d="M414 331.5C414 378.168 376.168 416 329.5 416C282.832 416 245 378.168 245 331.5C245 284.832 282.832 247 329.5 247C376.168 247 414 284.832 414 331.5Z" fill="white" stroke="black" stroke-width="70"/>
</svg>
